<?xml version="1.0" encoding="utf-8"?>
<!-- Generator: Adobe Illustrator 15.1.0, SVG Export Plug-In . SVG Version: 6.00 Build 0)  -->
<!DOCTYPE svg PUBLIC "-//W3C//DTD SVG 1.1//EN" "http://www.w3.org/Graphics/SVG/1.1/DTD/svg11.dtd">
<svg version="1.1" id="Layer_1" xmlns="http://www.w3.org/2000/svg" xmlns:xlink="http://www.w3.org/1999/xlink" x="0px" y="0px"
	 width="254.413px" height="132.224px" viewBox="0 0 254.413 132.224" enable-background="new 0 0 254.413 132.224"
	 xml:space="preserve">
<polygon display="none" fill="#E6E6E6" points="207.215,139.079 27.76,139.079 43.502,66.079 223.427,66.079 "/>
<g>
	<path d="M62.34,24.034c0.733-0.624,1.57-0.937,2.505-0.937c0.937,0,1.66,0.313,2.174,0.937c0.513,0.624,0.687,1.416,0.518,2.375
		l-5.447,30.888c-0.161,0.913-0.61,1.681-1.343,2.304c-0.734,0.623-1.568,0.936-2.505,0.936c-0.936,0-1.662-0.312-2.175-0.936
		c-0.514-0.623-0.691-1.392-0.53-2.304l5.447-30.888C61.154,25.45,61.606,24.658,62.34,24.034z"/>
	<path d="M97.141,28.786c-4.225,0-8.566,2.304-13.026,6.912l-3.809,21.6c-0.161,0.913-0.621,1.681-1.379,2.304
		c-0.757,0.623-1.594,0.936-2.505,0.936c-0.912,0-1.625-0.312-2.139-0.936c-0.514-0.623-0.69-1.392-0.529-2.304l5.447-30.888
		c0.169-0.959,0.62-1.751,1.354-2.375c0.733-0.624,1.557-0.937,2.469-0.937c0.911,0,1.637,0.313,2.174,0.937
		c0.539,0.624,0.723,1.416,0.554,2.375l-0.521,2.953c2.275-2.017,4.18-3.431,5.717-4.248c3.016-1.584,5.758-2.376,8.232-2.376
		c2.471,0,4.434,0.373,5.887,1.116c1.453,0.746,2.615,1.765,3.492,3.061c1.79,2.641,2.335,5.952,1.632,9.937l-3.605,20.447
		c-0.161,0.913-0.621,1.681-1.379,2.304c-0.757,0.623-1.594,0.936-2.505,0.936c-0.912,0-1.625-0.312-2.139-0.936
		c-0.515-0.623-0.691-1.392-0.53-2.304l3.479-19.728c0.482-2.736,0.25-4.884-0.7-6.444C101.863,29.567,99.973,28.786,97.141,28.786z
		"/>
	<path d="M129.696,54.85c5.328,0,8.292-1.703,8.894-5.111c0.186-1.056-0.2-1.86-1.159-2.412c-0.958-0.552-2.204-1.044-3.736-1.477
		c-1.532-0.432-3.193-0.875-4.985-1.332c-1.792-0.456-3.42-1.091-4.883-1.908c-1.465-0.816-2.609-1.883-3.431-3.205
		c-0.824-1.319-1.065-2.939-0.727-4.86c0.338-1.919,0.918-3.576,1.74-4.968c0.82-1.392,1.896-2.592,3.227-3.6
		c2.924-2.16,6.643-3.24,11.155-3.24c3.6,0,6.973,0.601,10.122,1.801c0.629,0.24,1.078,0.624,1.346,1.151
		c0.266,0.529,0.343,1.117,0.229,1.765c-0.114,0.647-0.499,1.26-1.152,1.836c-0.654,0.576-1.245,0.864-1.772,0.864
		c-0.529,0-1.156-0.119-1.881-0.359c-2.177-0.721-4.634-1.08-7.369-1.08c-2.736,0-4.898,0.48-6.482,1.439
		c-1.586,0.961-2.497,2.113-2.734,3.457c-0.237,1.345,0.127,2.34,1.093,2.988c0.966,0.647,2.203,1.188,3.711,1.619
		c1.508,0.432,3.171,0.864,4.991,1.297c1.819,0.432,3.455,1.032,4.904,1.799c3.404,1.92,4.751,4.896,4.041,8.929
		c-0.542,3.072-2.133,5.568-4.776,7.488c-2.869,2.112-6.534,3.168-10.998,3.168c-4.849,0-9.025-1.08-12.533-3.24
		c-0.715-0.576-0.995-1.296-0.843-2.16c0.152-0.865,0.545-1.596,1.179-2.197c0.633-0.599,1.262-0.899,1.886-0.899
		s1.334,0.192,2.131,0.575C123.446,54.227,126.385,54.85,129.696,54.85z"/>
	<path d="M165.683,55.137c1.271,0,2.203-0.108,2.792-0.323c0.59-0.216,1.209-0.324,1.858-0.324c0.647,0,1.193,0.241,1.637,0.72
		c0.443,0.481,0.581,1.2,0.411,2.16c-0.169,0.961-0.772,1.656-1.809,2.088c-2.232,0.959-4.082,1.44-5.546,1.44
		s-2.783-0.072-3.957-0.216c-1.176-0.145-2.255-0.551-3.24-1.224c-2.37-1.535-3.215-4.223-2.538-8.064l3.936-22.32h-5.112
		c-0.912,0-1.288-0.456-1.127-1.367c0.076-0.432,0.364-0.84,0.865-1.225l11.48-9.576c0.508-0.432,0.953-0.648,1.338-0.648
		c0.384,0,0.683,0.145,0.896,0.432c0.213,0.288,0.286,0.625,0.219,1.008l-1.016,5.761h8.136c0.815,0,1.44,0.264,1.876,0.792
		c0.435,0.529,0.581,1.2,0.438,2.016c-0.145,0.817-0.527,1.489-1.149,2.017c-0.621,0.528-1.339,0.792-2.155,0.792h-8.136
		l-3.834,21.745c-0.322,1.825,0.009,3.072,0.996,3.744C163.496,54.947,164.41,55.137,165.683,55.137z"/>
	<path d="M186.525,25.33c4.337-1.729,8.665-2.592,12.985-2.592c4.896,0,8.425,1.489,10.588,4.464
		c1.943,2.592,2.572,5.832,1.887,9.719l-3.593,20.376c-0.161,0.913-0.621,1.681-1.379,2.304c-0.757,0.623-1.594,0.936-2.505,0.936
		c-0.912,0-1.625-0.312-2.139-0.936c-0.515-0.623-0.691-1.392-0.53-2.304l0.33-1.872c-1.533,1.344-3.493,2.592-5.88,3.744
		c-2.388,1.152-5.262,1.728-8.621,1.728c-3.312,0-5.903-0.96-7.771-2.88c-1.949-2.016-2.635-4.655-2.06-7.92
		c0.626-3.552,2.46-6.336,5.504-8.353c3.316-2.207,7.687-3.311,13.112-3.311h8.712l0.102-0.576c0.567-3.215,0.179-5.508-1.164-6.876
		c-1.343-1.368-3.646-2.052-6.909-2.052c-2.785,0-6.078,0.576-9.881,1.728c-0.402,0.097-0.843,0.145-1.321,0.145
		c-0.48,0-0.94-0.252-1.38-0.756s-0.565-1.284-0.379-2.34C184.42,26.65,185.183,25.858,186.525,25.33z M184.517,49.377
		c-0.677,3.841,1.528,5.76,6.616,5.76c2.256,0,4.454-0.551,6.592-1.655c2.139-1.104,3.955-2.351,5.448-3.744l1.066-6.048h-7.848
		c-3.409,0-6.149,0.432-8.22,1.295C186.099,45.85,184.88,47.314,184.517,49.377z"/>
</g>
<path fill="#ED1C24" d="M193.427,36.579"/>
<g>
	<g id="Ebene_1" display="none">
		
			<image display="inline" overflow="visible" enable-background="new    " width="139" height="53" xlink:href="../../ONTARGET_WEBDESIGN/Joomla3/logo/NewSite/EDCCC8A0.png"  transform="matrix(0.414 0 0 0.3961 59.2568 0)">
		</image>
	</g>
	<g id="Ebene_2">
		<g>
			<path d="M66.385,12.329l4.844-5.387c-1.284-1.03-2.898-1.664-4.72-1.664c-4.016,0-7.246,3.13-7.246,6.932
				c0,3.804,3.23,6.933,7.246,6.933c4.017,0,7.246-3.09,7.246-6.933c0-1.228-0.331-2.376-0.911-3.367L66.385,12.329z"/>
			<path fill="#FFFFFF" d="M72.844,8.843c-0.414-0.713-0.952-1.347-1.615-1.901l-4.844,5.387L72.844,8.843z"/>
		</g>
		<ellipse fill="#FFFFFF" cx="66.509" cy="12.21" rx="4.348" ry="4.16"/>
		<ellipse fill="#999999" cx="66.509" cy="12.21" rx="3.105" ry="2.971"/>
		<ellipse fill="#662D91" cx="66.509" cy="12.21" rx="1.657" ry="1.584"/>
		
			<linearGradient id="SVGID_1_" gradientUnits="userSpaceOnUse" x1="-1708.6772" y1="-1330.1006" x2="-1706.3762" y2="-1321.5129" gradientTransform="matrix(1 0 0 1 1781.5 1331.5)">
			<stop  offset="0.3" style="stop-color:#662D91"/>
			<stop  offset="0.8" style="stop-color:#000000"/>
		</linearGradient>
		<path fill="url(#SVGID_1_)" d="M66.385,12.329L77.274,0.207c0,0-1.615,3.525-0.414,4.278c1.242,0.753,5.88-1.03,5.88-1.03
			L66.385,12.329z"/>
	</g>
</g>
<g>
	<linearGradient id="SVGID_2_" gradientUnits="userSpaceOnUse" x1="71.688" y1="105.0439" x2="114.0615" y2="105.0439">
		<stop  offset="0" style="stop-color:#662D91"/>
		<stop  offset="0.5169" style="stop-color:#7FD0E8"/>
		<stop  offset="0.5225" style="stop-color:#00B0D8"/>
		<stop  offset="0.7753" style="stop-color:#008AA9"/>
		<stop  offset="0.9888" style="stop-color:#00708C"/>
	</linearGradient>
	<path fill="url(#SVGID_2_)" d="M86.34,83.336c4.195-3.648,8.62-5.473,13.276-5.473c4.655,0,8.349,1.656,11.076,4.969
		c3.004,3.647,4,8.352,2.985,14.111c-1.033,5.857-3.692,10.584-7.974,14.185c-3.936,3.264-8.22,4.896-12.852,4.896
		c-4.633,0-8.402-1.824-11.311-5.472l-3.237,18.36c-0.169,0.959-0.622,1.751-1.355,2.375c-0.734,0.623-1.568,0.936-2.505,0.936
		c-0.936,0-1.662-0.312-2.175-0.936c-0.514-0.624-0.686-1.417-0.517-2.375l8.367-47.449c0.16-0.911,0.607-1.679,1.341-2.303
		c0.733-0.624,1.57-0.937,2.505-0.937c0.937,0,1.66,0.313,2.174,0.937c0.514,0.624,0.691,1.393,0.531,2.303L86.34,83.336z
		 M82.607,104.504c2.629,3.6,6.104,5.4,10.424,5.4c5.472,0,9.551-2.447,12.239-7.344c0.863-1.631,1.481-3.503,1.854-5.616
		c0.728-4.128,0.194-7.368-1.598-9.719c-1.732-2.16-4.373-3.24-7.925-3.24c-4.32,0-8.429,1.799-12.328,5.399L82.607,104.504z"/>
	<linearGradient id="SVGID_3_" gradientUnits="userSpaceOnUse" x1="118.2104" y1="96.9443" x2="152.8232" y2="96.9443">
		<stop  offset="0" style="stop-color:#662D91"/>
		<stop  offset="0.5169" style="stop-color:#7FD0E8"/>
		<stop  offset="0.5225" style="stop-color:#00B0D8"/>
		<stop  offset="0.7753" style="stop-color:#008AA9"/>
		<stop  offset="0.9888" style="stop-color:#00708C"/>
	</linearGradient>
	<path fill="url(#SVGID_3_)" d="M127.095,80.456c4.337-1.729,8.665-2.592,12.985-2.592c4.896,0,8.425,1.489,10.588,4.464
		c1.943,2.592,2.572,5.832,1.887,9.719l-3.593,20.376c-0.161,0.913-0.621,1.681-1.379,2.304c-0.757,0.623-1.594,0.936-2.505,0.936
		c-0.912,0-1.625-0.312-2.139-0.936c-0.515-0.623-0.691-1.392-0.53-2.304l0.33-1.872c-1.533,1.344-3.493,2.592-5.88,3.744
		c-2.388,1.152-5.262,1.728-8.621,1.728c-3.312,0-5.903-0.96-7.771-2.88c-1.949-2.016-2.635-4.655-2.06-7.92
		c0.626-3.552,2.46-6.336,5.504-8.353c3.316-2.207,7.687-3.311,13.112-3.311h8.712l0.102-0.576c0.567-3.215,0.179-5.508-1.164-6.876
		c-1.343-1.368-3.646-2.052-6.909-2.052c-2.785,0-6.078,0.576-9.881,1.728c-0.402,0.097-0.843,0.145-1.321,0.145
		c-0.48,0-0.94-0.252-1.38-0.756s-0.565-1.284-0.379-2.34C124.99,81.776,125.753,80.985,127.095,80.456z M125.086,104.504
		c-0.677,3.841,1.528,5.76,6.616,5.76c2.256,0,4.454-0.551,6.592-1.655c2.139-1.104,3.955-2.351,5.448-3.744l1.066-6.048h-7.848
		c-3.409,0-6.149,0.432-8.22,1.295C126.668,100.976,125.45,102.441,125.086,104.504z"/>
	<linearGradient id="SVGID_4_" gradientUnits="userSpaceOnUse" x1="161.002" y1="105.2236" x2="196.0454" y2="105.2236">
		<stop  offset="0" style="stop-color:#662D91"/>
		<stop  offset="0.5169" style="stop-color:#7FD0E8"/>
		<stop  offset="0.5225" style="stop-color:#00B0D8"/>
		<stop  offset="0.7753" style="stop-color:#008AA9"/>
		<stop  offset="0.9888" style="stop-color:#00708C"/>
	</linearGradient>
	<path fill="url(#SVGID_4_)" d="M195.429,79.196c0.509,0.648,0.704,1.321,0.581,2.016c-0.123,0.696-0.286,1.212-0.489,1.548
		l-27.984,47.232c-0.887,1.487-2.026,2.231-3.418,2.231c-0.864,0-1.542-0.312-2.031-0.936c-0.491-0.624-0.679-1.249-0.569-1.872
		c0.11-0.625,0.27-1.129,0.482-1.513l6.8-12.023l-7.722-32.976c-0.107-0.48-0.102-1.056,0.017-1.728
		c0.118-0.672,0.547-1.332,1.285-1.98c0.737-0.648,1.491-0.972,2.26-0.972c1.584,0,2.545,0.673,2.884,2.017l6.238,27.504
		l16.128-27.36c0.877-1.44,2.013-2.16,3.405-2.16C194.208,78.224,194.919,78.548,195.429,79.196z"/>
</g>
<line display="none" fill="#FFFFFF" stroke="#FFFFFF" stroke-miterlimit="10" x1="231.76" y1="19.079" x2="205.093" y2="162.747"/>
<g>
	<g>
		<g>
			<g>
				<g>
					<path fill="none" d="M49.336,41.804c-1.49,0.034-2.98,0.087-4.472,0.163l0.23,4.542c1.446-0.073,2.894-0.125,4.344-0.158
						L49.336,41.804z"/>
					<path fill-rule="evenodd" clip-rule="evenodd" fill="#5E2CA0" d="M44.979,44.237c-0.067-1.253,0.882-2.323,2.121-2.367
						c1.238-0.045,2.262,0.952,2.287,2.207c0.026,1.255-0.926,2.294-2.123,2.338C46.068,46.458,45.046,45.491,44.979,44.237z"/>
				</g>
			</g>
			<g>
				<g>
					<path fill="none" d="M38.786,42.406c-1.491,0.142-2.981,0.312-4.47,0.512l0.607,4.507c1.426-0.191,2.858-0.355,4.295-0.491
						L38.786,42.406z"/>
					<path fill-rule="evenodd" clip-rule="evenodd" fill="#5E2CA0" d="M34.62,45.171c-0.173-1.245,0.692-2.389,1.931-2.531
						c1.238-0.141,2.335,0.778,2.451,2.029c0.115,1.249-0.753,2.354-1.935,2.489C35.885,47.294,34.792,46.413,34.62,45.171z"/>
				</g>
			</g>
			<g>
				<g>
					<path fill="none" d="M30.276,43.544c-1.485,0.261-2.966,0.562-4.442,0.904l1.031,4.43c1.389-0.323,2.791-0.607,4.202-0.855
						L30.276,43.544z"/>
					<path fill-rule="evenodd" clip-rule="evenodd" fill="#5E2CA0" d="M26.35,46.663c-0.291-1.221,0.47-2.448,1.703-2.697
						c1.232-0.25,2.406,0.58,2.619,1.817c0.213,1.237-0.559,2.405-1.714,2.64C27.803,48.656,26.641,47.885,26.35,46.663z"/>
				</g>
			</g>
			<g>
				<g>
					<path fill="none" d="M21.842,45.498c-1.462,0.433-2.915,0.918-4.351,1.471l1.635,4.244c1.308-0.504,2.647-0.952,4.004-1.354
						L21.842,45.498z"/>
					<path fill-rule="evenodd" clip-rule="evenodd" fill="#5E2CA0" d="M18.309,49.091c-0.461-1.168,0.137-2.496,1.349-2.902
						c1.21-0.41,2.481,0.285,2.829,1.49c0.349,1.207-0.278,2.447-1.375,2.82C20.012,50.866,18.77,50.258,18.309,49.091z"/>
				</g>
			</g>
			<g>
				<g>
					<path fill="none" d="M13.64,48.653c-1.396,0.69-2.762,1.469-4.079,2.355l2.542,3.771c1.124-0.756,2.316-1.438,3.557-2.051
						L13.64,48.653z"/>
					<path fill-rule="evenodd" clip-rule="evenodd" fill="#5E2CA0" d="M10.832,52.894c-0.715-1.029-0.404-2.481,0.74-3.136
						c1.141-0.654,2.532-0.198,3.078,0.933c0.546,1.129,0.161,2.451-0.812,3.01C12.866,54.255,11.549,53.926,10.832,52.894z"/>
				</g>
			</g>
			<g>
				<g>
					<path fill="none" d="M6.147,53.709c-1.184,1.108-2.275,2.355-3.2,3.745l3.786,2.519c0.705-1.059,1.56-2.043,2.522-2.944
						L6.147,53.709z"/>
					<path fill-rule="evenodd" clip-rule="evenodd" fill="#5E2CA0" d="M4.84,58.713c-1.061-0.668-1.3-2.184-0.39-3.237
						c0.906-1.052,2.412-1.036,3.25-0.107c0.844,0.933,0.88,2.275,0.198,3.072C7.212,59.23,5.903,59.385,4.84,58.713z"/>
				</g>
			</g>
			<g>
				<g>
					<path fill="none" d="M0.915,61.541C0.363,63.145,0.053,64.839,0,66.526l4.545,0.152c0.04-1.252,0.267-2.482,0.67-3.659
						L0.915,61.541z"/>
					<path fill-rule="evenodd" clip-rule="evenodd" fill="#5E2CA0" d="M2.272,66.603c-1.252-0.008-2.261-1.182-2.002-2.601
						c0.258-1.42,1.623-2.163,2.794-1.722c1.179,0.44,1.852,1.559,1.68,2.541C4.56,65.8,3.53,66.613,2.272,66.603z"/>
				</g>
			</g>
			<g>
				<g>
					<path fill="none" d="M0.408,71.04c0.341,1.619,0.872,3.171,1.531,4.642l4.15-1.86c-0.543-1.212-0.966-2.459-1.231-3.719
						L0.408,71.04z"/>
					<path fill-rule="evenodd" clip-rule="evenodd" fill="#5E2CA0" d="M4.013,74.752c-1.134,0.532-2.524-0.031-2.959-1.336
						c-0.438-1.308,0.347-2.615,1.579-2.845c1.236-0.232,2.398,0.405,2.737,1.409C5.703,72.988,5.152,74.219,4.013,74.752z"/>
				</g>
			</g>
			<g>
				<g>
					<path fill="none" d="M4.017,79.487c0.857,1.331,1.808,2.585,2.819,3.773l3.46-2.951c-0.894-1.051-1.723-2.146-2.458-3.288
						L4.017,79.487z"/>
					<path fill-rule="evenodd" clip-rule="evenodd" fill="#5E2CA0" d="M8.566,81.785c-0.945,0.823-2.409,0.695-3.198-0.358
						c-0.792-1.054-0.506-2.506,0.559-3.172c1.063-0.666,2.408-0.45,3.081,0.444C9.679,79.597,9.515,80.959,8.566,81.785z"/>
				</g>
			</g>
			<g>
				<g>
					<path fill="none" d="M9.733,86.327c1.115,1.071,2.278,2.083,3.479,3.04l2.834-3.557c-1.099-0.875-2.156-1.796-3.162-2.762
						L9.733,86.327z"/>
					<path fill-rule="evenodd" clip-rule="evenodd" fill="#5E2CA0" d="M14.63,87.589c-0.774,0.987-2.22,1.146-3.189,0.3
						c-0.971-0.845-1.01-2.305-0.132-3.202c0.878-0.897,2.255-0.979,3.122-0.225C15.297,85.219,15.405,86.601,14.63,87.589z"/>
				</g>
			</g>
			<g>
				<g>
					<path fill="none" d="M16.562,91.836c1.262,0.862,2.554,1.674,3.871,2.44l2.286-3.932c-1.226-0.713-2.425-1.467-3.591-2.263
						L16.562,91.836z"/>
					<path fill-rule="evenodd" clip-rule="evenodd" fill="#5E2CA0" d="M21.575,92.311c-0.624,1.088-2.023,1.46-3.099,0.781
						c-1.077-0.677-1.347-2.102-0.632-3.133c0.716-1.032,2.07-1.334,3.056-0.715C21.885,89.866,22.2,91.221,21.575,92.311z"/>
				</g>
			</g>
			<g>
				<g>
					<path fill="none" d="M24.066,96.243c1.357,0.683,2.734,1.322,4.127,1.918l1.79-4.181c-1.31-0.561-2.602-1.16-3.872-1.799
						L24.066,96.243z"/>
					<path fill-rule="evenodd" clip-rule="evenodd" fill="#5E2CA0" d="M29.088,96.071c-0.487,1.157-1.826,1.696-2.973,1.164
						c-1.146-0.532-1.598-1.904-1.027-3.021c0.571-1.119,1.88-1.596,2.943-1.103C29.095,93.604,29.576,94.914,29.088,96.071z"/>
				</g>
			</g>
			<g>
				<g>
					<path fill="none" d="M32.019,99.678c1.421,0.521,2.856,1.001,4.303,1.441l1.324-4.351c-1.367-0.416-2.722-0.87-4.062-1.36
						L32.019,99.678z"/>
					<path fill-rule="evenodd" clip-rule="evenodd" fill="#5E2CA0" d="M36.983,98.945c-0.359,1.202-1.629,1.885-2.823,1.484
						c-1.194-0.399-1.797-1.708-1.359-2.885c0.438-1.176,1.687-1.8,2.803-1.427C36.72,96.491,37.343,97.741,36.983,98.945z"/>
				</g>
			</g>
			<g>
				<g>
					<path fill="none" d="M40.278,102.218c1.465,0.37,2.939,0.698,4.42,0.99l0.877-4.462c-1.404-0.276-2.801-0.588-4.188-0.938
						L40.278,102.218z"/>
					<path fill-rule="evenodd" clip-rule="evenodd" fill="#5E2CA0" d="M45.137,100.977c-0.237,1.234-1.429,2.039-2.655,1.765
						c-1.227-0.275-1.961-1.513-1.649-2.729c0.312-1.216,1.491-1.967,2.642-1.709C44.625,98.561,45.373,99.745,45.137,100.977z"/>
				</g>
			</g>
			<g>
				<g>
					<path fill="#5E2CA0" d="M49.986,93.295c0.827,0.104,1.417,0.938,1.315,1.889c-0.099,0.948-0.886,1.646-1.758,1.54
						c-0.869-0.107-1.458-0.974-1.312-1.918C48.373,93.861,49.159,93.192,49.986,93.295z"/>
					<line fill="#5E2CA0" x1="49.764" y1="95.01" x2="49.764" y2="95.01"/>
				</g>
				<g>
					<path fill="#5E2CA0" d="M49.317,97.691c0.874,0.114,1.503,0.954,1.404,1.904c-0.1,0.947-0.924,1.643-1.841,1.529
						c-0.917-0.113-1.545-0.989-1.402-1.932C47.621,98.247,48.442,97.589,49.317,97.691z"/>
					<line fill="#5E2CA0" x1="49.097" y1="99.409" x2="49.097" y2="99.409"/>
				</g>
				<g>
					<path fill="#5E2CA0" d="M48.648,102.097c0.92,0.116,1.588,0.96,1.49,1.911c-0.098,0.947-0.959,1.638-1.923,1.518
						c-0.963-0.121-1.629-1.003-1.488-1.948C46.867,102.634,47.728,101.979,48.648,102.097z"/>
					<line fill="#5E2CA0" x1="48.431" y1="103.81" x2="48.431" y2="103.81"/>
				</g>
				<g>
					<path fill="#5E2CA0" d="M47.979,106.498c0.969,0.121,1.675,0.973,1.579,1.924c-0.096,0.947-0.995,1.632-2.006,1.506
						c-1.01-0.127-1.716-1.017-1.576-1.962C46.117,107.022,47.012,106.372,47.979,106.498z"/>
					<line fill="#5E2CA0" x1="47.765" y1="108.211" x2="47.765" y2="108.211"/>
				</g>
				<g>
					<path fill="#5E2CA0" d="M53.242,95.88c0.855,0.066,1.501,0.877,1.443,1.83c-0.057,0.951-0.832,1.683-1.73,1.614
						c-0.897-0.071-1.542-0.916-1.441-1.863C51.615,96.511,52.389,95.809,53.242,95.88z"/>
					<line fill="#5E2CA0" x1="53.099" y1="97.6" x2="53.099" y2="97.6"/>
				</g>
				<g>
					<path fill="#5E2CA0" d="M52.771,100.302c0.9,0.075,1.584,0.889,1.528,1.843c-0.059,0.953-0.868,1.682-1.813,1.605
						c-0.943-0.075-1.627-0.925-1.527-1.874C51.059,100.927,51.869,100.229,52.771,100.302z"/>
					<line fill="#5E2CA0" x1="52.628" y1="102.026" x2="52.628" y2="102.026"/>
				</g>
				<g>
					<path fill="#5E2CA0" d="M52.297,104.728c0.948,0.08,1.67,0.897,1.614,1.854c-0.056,0.948-0.903,1.676-1.893,1.594
						c-0.989-0.079-1.713-0.932-1.614-1.884C50.502,105.343,51.35,104.651,52.297,104.728z"/>
					<line fill="#5E2CA0" x1="52.157" y1="106.453" x2="52.157" y2="106.453"/>
				</g>
				<g>
					<path fill="#5E2CA0" d="M56.852,98.286c0.879,0.03,1.578,0.817,1.563,1.768c-0.014,0.954-0.772,1.721-1.693,1.69
						c-0.923-0.031-1.624-0.85-1.566-1.8C55.21,98.992,55.971,98.259,56.852,98.286z"/>
					<line fill="#5E2CA0" x1="56.785" y1="100.017" x2="56.785" y2="100.017"/>
				</g>
				<g>
					<path fill="#5E2CA0" d="M56.578,102.731c0.925,0.03,1.664,0.814,1.65,1.77c-0.013,0.957-0.808,1.72-1.775,1.689
						c-0.968-0.037-1.708-0.859-1.651-1.809C54.858,103.429,55.653,102.699,56.578,102.731z"/>
					<line fill="#5E2CA0" x1="56.515" y1="104.455" x2="56.515" y2="104.455"/>
				</g>
				<g>
					<path fill="#5E2CA0" d="M60.581,100.579c0.903-0.008,1.654,0.745,1.682,1.703c0.029,0.951-0.713,1.748-1.658,1.757
						c-0.943,0.007-1.698-0.776-1.684-1.733C58.937,101.35,59.68,100.588,60.581,100.579z"/>
					<line fill="#5E2CA0" x1="60.593" y1="102.309" x2="60.593" y2="102.309"/>
				</g>
			</g>
		</g>
	</g>
</g>
<g>
	<g>
		<g>
			<g>
				<g>
					<path fill="none" d="M194.313,108.536c1.571-0.041,3.143-0.125,4.713-0.222l-0.298-4.538c-1.515,0.094-3.031,0.175-4.551,0.215
						L194.313,108.536z"/>
					<path fill-rule="evenodd" clip-rule="evenodd" fill="#00919C" d="M198.878,106.045c0.086,1.255-0.901,2.336-2.207,2.4
						c-1.306,0.063-2.392-0.927-2.425-2.182c-0.034-1.256,0.957-2.3,2.209-2.361C197.708,103.842,198.792,104.795,198.878,106.045z"
						/>
				</g>
			</g>
			<g>
				<g>
					<path fill="none" d="M205.423,107.725c1.566-0.19,3.13-0.412,4.69-0.666l-0.739-4.487c-1.492,0.243-2.989,0.456-4.493,0.638
						L205.423,107.725z"/>
					<path fill-rule="evenodd" clip-rule="evenodd" fill="#00919C" d="M209.744,104.816c0.209,1.238-0.673,2.417-1.974,2.6
						c-1.3,0.189-2.473-0.706-2.617-1.948c-0.146-1.252,0.744-2.375,1.979-2.555C208.368,102.74,209.535,103.578,209.744,104.816z"
						/>
				</g>
			</g>
			<g>
				<g>
					<path fill="none" d="M214.34,106.27c1.55-0.328,3.094-0.694,4.629-1.102l-1.17-4.395c-1.453,0.386-2.919,0.733-4.394,1.045
						L214.34,106.27z"/>
					<path fill-rule="evenodd" clip-rule="evenodd" fill="#00919C" d="M218.384,102.972c0.33,1.213-0.439,2.474-1.724,2.777
						c-1.284,0.309-2.536-0.479-2.787-1.704c-0.253-1.234,0.53-2.43,1.737-2.721C216.818,101.039,218.056,101.762,218.384,102.972z"
						/>
				</g>
			</g>
			<g>
				<g>
					<path fill="none" d="M223.115,103.947c1.515-0.492,3.018-1.03,4.503-1.623l-1.685-4.224c-1.387,0.553-2.796,1.058-4.222,1.521
						L223.115,103.947z"/>
					<path fill-rule="evenodd" clip-rule="evenodd" fill="#00919C" d="M226.776,100.213c0.473,1.163-0.147,2.513-1.399,2.96
						c-1.25,0.452-2.583-0.191-2.964-1.389c-0.38-1.195,0.265-2.471,1.423-2.89C224.997,98.48,226.304,99.05,226.776,100.213z"/>
				</g>
			</g>
			<g>
				<g>
					<path fill="none" d="M231.605,100.582c1.448-0.693,2.873-1.443,4.265-2.258l-2.297-3.925c-1.276,0.747-2.59,1.438-3.931,2.08
						L231.605,100.582z"/>
					<path fill-rule="evenodd" clip-rule="evenodd" fill="#00919C" d="M234.722,96.362c0.642,1.076,0.222,2.507-0.964,3.137
						c-1.187,0.626-2.6,0.169-3.134-0.968c-0.534-1.135-0.071-2.483,1.007-3.052C232.708,94.908,234.078,95.282,234.722,96.362z"/>
				</g>
			</g>
			<g>
				<g>
					<path fill="none" d="M239.566,95.946c1.324-0.938,2.605-1.946,3.831-3.026l-3.012-3.407c-1.094,0.963-2.246,1.87-3.444,2.72
						L239.566,95.946z"/>
					<path fill-rule="evenodd" clip-rule="evenodd" fill="#00919C" d="M241.891,91.216c0.84,0.931,0.698,2.43-0.374,3.271
						c-1.068,0.843-2.55,0.632-3.264-0.397c-0.717-1.034-0.494-2.429,0.448-3.174C239.646,90.175,241.049,90.284,241.891,91.216z"/>
				</g>
			</g>
			<g>
				<g>
					<path fill="none" d="M246.566,89.789c1.106-1.22,2.129-2.525,3.058-3.904l-3.777-2.533c-0.799,1.185-1.687,2.32-2.658,3.391
						L246.566,89.789z"/>
					<path fill-rule="evenodd" clip-rule="evenodd" fill="#00919C" d="M247.736,84.619c1.05,0.683,1.283,2.188,0.425,3.278
						c-0.854,1.092-2.363,1.219-3.283,0.369c-0.924-0.853-1.018-2.249-0.295-3.175C245.31,84.169,246.682,83.933,247.736,84.619z"/>
				</g>
			</g>
			<g>
				<g>
					<path fill="none" d="M251.869,81.945c0.716-1.518,1.308-3.105,1.735-4.747l-4.4-1.15c-0.351,1.351-0.843,2.673-1.446,3.951
						L251.869,81.945z"/>
					<path fill-rule="evenodd" clip-rule="evenodd" fill="#00919C" d="M251.404,76.624c1.222,0.295,1.928,1.661,1.44,2.995
						c-0.484,1.334-1.91,1.907-3.031,1.354c-1.131-0.556-1.625-1.844-1.238-2.921C248.969,76.979,250.187,76.328,251.404,76.624z"/>
				</g>
			</g>
			<g>
				<g>
					<path fill="none" d="M254.356,72.642c0.121-1.704,0.049-3.427-0.206-5.124l-4.496,0.685c0.204,1.361,0.263,2.746,0.165,4.125
						L254.356,72.642z"/>
					<path fill-rule="evenodd" clip-rule="evenodd" fill="#00919C" d="M251.903,67.861c1.231-0.214,2.439,0.772,2.491,2.217
						c0.06,1.444-1.059,2.519-2.306,2.407c-1.254-0.11-2.188-1.109-2.239-2.226C249.813,69.142,250.661,68.075,251.903,67.861z"/>
				</g>
			</g>
			<g>
				<g>
					<path fill="none" d="M252.988,63.012c-0.601-1.604-1.363-3.147-2.288-4.579l-3.83,2.453c0.755,1.166,1.367,2.412,1.852,3.702
						L252.988,63.012z"/>
					<path fill-rule="evenodd" clip-rule="evenodd" fill="#00919C" d="M248.786,59.66c1.042-0.697,2.535-0.291,3.179,0.999
						c0.652,1.287,0.07,2.734-1.11,3.142c-1.192,0.414-2.447-0.11-2.958-1.108C247.398,61.688,247.741,60.357,248.786,59.66z"/>
				</g>
			</g>
			<g>
				<g>
					<path fill="none" d="M247.874,54.8c-1.151-1.237-2.413-2.356-3.75-3.358l-2.729,3.638c1.137,0.851,2.196,1.793,3.151,2.82
						L247.874,54.8z"/>
					<path fill-rule="evenodd" clip-rule="evenodd" fill="#00919C" d="M242.759,53.26c0.739-1.017,2.255-1.166,3.309-0.227
						c1.057,0.939,1.074,2.478,0.142,3.316c-0.935,0.841-2.312,0.837-3.172,0.075C242.18,55.658,242.021,54.274,242.759,53.26z"/>
				</g>
			</g>
			<g>
				<g>
					<path fill="none" d="M240.326,48.998c-1.449-0.802-2.95-1.487-4.479-2.08l-1.641,4.241c1.354,0.525,2.67,1.127,3.927,1.823
						L240.326,48.998z"/>
					<path fill-rule="evenodd" clip-rule="evenodd" fill="#00919C" d="M235.026,49.038c0.439-1.174,1.839-1.74,3.091-1.159
						c1.254,0.578,1.732,2.02,1.112,3.11c-0.62,1.093-1.95,1.51-3.023,1.017C235.135,51.506,234.585,50.215,235.026,49.038z"/>
				</g>
			</g>
			<g>
				<g>
					<path fill="#00919C" d="M229.137,55.929c-0.75-0.188-1.218-1.066-1.025-2.001c0.19-0.936,1.037-1.553,1.881-1.349
						c0.841,0.208,1.284,1.149,1.001,2.058C230.71,55.552,229.889,56.114,229.137,55.929z"/>
					<line fill="#00919C" x1="229.566" y1="54.254" x2="229.566" y2="54.254"/>
				</g>
				<g>
					<path fill="#00919C" d="M230.333,51.646c-0.849-0.217-1.395-1.115-1.206-2.051c0.189-0.935,1.11-1.539,2.051-1.306
						c0.94,0.235,1.469,1.206,1.19,2.114C232.086,51.321,231.185,51.85,230.333,51.646z"/>
					<line fill="#00919C" x1="230.758" y1="49.967" x2="230.758" y2="49.967"/>
				</g>
				<g>
					<path fill="#00919C" d="M231.527,47.354c-0.948-0.24-1.571-1.156-1.384-2.092c0.187-0.935,1.181-1.522,2.219-1.263
						c1.039,0.262,1.653,1.26,1.376,2.171C233.462,47.088,232.476,47.593,231.527,47.354z"/>
					<line fill="#00919C" x1="231.947" y1="45.678" x2="231.947" y2="45.678"/>
				</g>
				<g>
					<path fill="#00919C" d="M232.722,43.066c-1.048-0.266-1.749-1.201-1.566-2.138c0.183-0.936,1.252-1.505,2.39-1.22
						c1.137,0.289,1.838,1.316,1.564,2.227C234.834,42.853,233.769,43.333,232.722,43.066z"/>
					<line fill="#00919C" x1="233.136" y1="41.389" x2="233.136" y2="41.389"/>
				</g>
				<g>
					<path fill="#00919C" d="M226.286,53.075c-0.833-0.126-1.424-0.972-1.315-1.92c0.11-0.947,0.943-1.631,1.857-1.494
						c0.912,0.144,1.491,1.048,1.299,1.98C227.934,52.58,227.115,53.207,226.286,53.075z"/>
					<line fill="#00919C" x1="226.557" y1="51.37" x2="226.557" y2="51.37"/>
				</g>
				<g>
					<path fill="#00919C" d="M227.086,48.701c-0.919-0.146-1.58-1.002-1.474-1.95c0.11-0.951,1.007-1.624,2.009-1.469
						c1,0.159,1.657,1.081,1.468,2.015C228.898,48.234,228.006,48.845,227.086,48.701z"/>
					<line fill="#00919C" x1="227.354" y1="46.991" x2="227.354" y2="46.991"/>
				</g>
				<g>
					<path fill="#00919C" d="M227.888,44.322c-1.008-0.163-1.74-1.028-1.634-1.979c0.105-0.945,1.071-1.612,2.16-1.441
						c1.088,0.174,1.823,1.112,1.636,2.049C229.864,43.889,228.896,44.482,227.888,44.322z"/>
					<line fill="#00919C" x1="228.152" y1="42.612" x2="228.152" y2="42.612"/>
				</g>
				<g>
					<path fill="#00919C" d="M222.804,50.474c-0.892-0.064-1.587-0.87-1.552-1.818c0.035-0.957,0.845-1.701,1.808-1.633
						c0.966,0.07,1.658,0.93,1.55,1.875C224.503,49.846,223.697,50.534,222.804,50.474z"/>
					<line fill="#00919C" x1="222.935" y1="48.746" x2="222.935" y2="48.746"/>
				</g>
				<g>
					<path fill="#00919C" d="M223.244,46.042c-0.971-0.069-1.731-0.874-1.697-1.827c0.033-0.959,0.902-1.698,1.945-1.625
						c1.043,0.081,1.806,0.949,1.7,1.895C225.084,45.434,224.214,46.113,223.244,46.042z"/>
					<line fill="#00919C" x1="223.369" y1="44.321" x2="223.369" y2="44.321"/>
				</g>
				<g>
					<path fill="#00919C" d="M219.013,48.09c-0.937-0.006-1.72-0.751-1.75-1.714c-0.031-0.948,0.753-1.75,1.755-1.746
						c1,0,1.787,0.807,1.752,1.759C220.734,47.347,219.948,48.089,219.013,48.09z"/>
					<line fill="#00919C" x1="219.016" y1="46.36" x2="219.016" y2="46.36"/>
				</g>
			</g>
		</g>
	</g>
</g>
<path opacity="0.502" fill="#424770" enable-background="new    " d="M185.093,164.329h-107c-3.314,0-6-2.686-6-6v-14
	c0-3.314,2.686-6,6-6h107c3.314,0,6,2.686,6,6v14C191.093,161.644,188.407,164.329,185.093,164.329z M83.221,147.222h-2.557v7.24
	h1.347v-2.6h1.21c1.474,0,2.526-0.947,2.526-2.315S84.695,147.222,83.221,147.222z M89.136,149.074
	c-1.589,0-2.715,1.136-2.715,2.757c0,1.609,1.126,2.757,2.715,2.757s2.705-1.147,2.705-2.757
	C91.841,150.21,90.725,149.074,89.136,149.074z M99.029,149.2l-1.063,3.578l-1.063-3.578h-1.22l-1.063,3.578l-1.063-3.578H92.21
	l1.81,5.262h1.21l1.063-3.578l1.074,3.578h1.21l1.799-5.262H99.029z M103.345,149.074c-1.505,0-2.599,1.126-2.599,2.715
	c0,1.642,1.115,2.799,2.704,2.799c0.589,0,1.189-0.137,1.789-0.409v-1.127c-0.547,0.315-1.084,0.494-1.568,0.494
	c-0.884,0-1.515-0.547-1.6-1.347h3.568c0.021-0.179,0.021-0.347,0.021-0.495C105.66,150.158,104.723,149.074,103.345,149.074z
	 M109.817,149.126c-0.147-0.042-0.294-0.052-0.442-0.052c-0.452,0-0.915,0.231-1.294,0.651V149.2h-1.347v5.262h1.347v-3.515
	c0.347-0.442,0.821-0.685,1.263-0.685c0.158,0,0.326,0.021,0.473,0.063V149.126z M112.901,149.074c-1.505,0-2.599,1.126-2.599,2.715
	c0,1.642,1.116,2.799,2.705,2.799c0.589,0,1.189-0.137,1.789-0.409v-1.127c-0.548,0.315-1.084,0.494-1.569,0.494
	c-0.883,0-1.515-0.547-1.599-1.347h3.567c0.021-0.179,0.021-0.347,0.021-0.495C115.216,150.158,114.28,149.074,112.901,149.074z
	 M121.005,146.896h-1.358v2.662c-0.41-0.315-0.873-0.483-1.336-0.483c-1.4,0-2.378,1.136-2.378,2.757
	c0,1.62,0.978,2.757,2.378,2.757c0.463,0,0.926-0.168,1.336-0.495v0.369h1.358V146.896z M127.783,149.074
	c-0.452,0-0.915,0.168-1.336,0.483v-2.662H125.1v7.566h1.347v-0.369c0.421,0.327,0.884,0.495,1.336,0.495
	c1.41,0,2.378-1.137,2.378-2.757C130.161,150.21,129.193,149.074,127.783,149.074z M134.403,149.2l-1.273,3.452l-1.263-3.452h-1.379
	l2.009,5.072l-1.009,2.494h1.305l2.989-7.566H134.403z M145.202,148.617c0.863,0,1.959,0.264,2.824,0.731v-2.676
	c-0.941-0.375-1.882-0.519-2.822-0.519c-2.303,0-3.838,1.202-3.838,3.213c0,3.144,4.315,2.633,4.315,3.987
	c0,0.525-0.456,0.695-1.089,0.695c-0.941,0-2.154-0.389-3.107-0.906v2.711c1.056,0.453,2.125,0.644,3.104,0.644
	c2.36,0,3.987-1.166,3.987-3.21c0-3.386-4.34-2.777-4.34-4.057C144.237,148.789,144.606,148.617,145.202,148.617z M154.272,146.343
	h-2.156l-0.002-2.466l-2.771,0.591l-0.014,9.108c0,1.681,1.266,2.922,2.951,2.922c0.928,0,1.613-0.168,1.992-0.376v-2.311
	c-0.363,0.145-2.156,0.666-2.156-1.008v-4.039h2.156V146.343z M160.368,146.345c-0.379-0.137-1.705-0.385-2.371,0.838l-0.178-0.84
	h-2.455v9.952h2.838v-6.747c0.672-0.881,1.805-0.711,2.166-0.594V146.345z M164.092,142.56l-2.851,0.605v2.312l2.851-0.605V142.56z
	 M164.092,146.343h-2.851v9.952h2.851V146.343z M170.218,146.154c-1.113,0-1.832,0.524-2.225,0.89l-0.147-0.701h-2.5l0.001,13.254
	l2.839-0.604l0.007-3.213c0.407,0.299,1.015,0.718,2.008,0.718c2.031,0,3.89-1.634,3.89-5.242
	C174.09,147.95,172.212,146.154,170.218,146.154z M179.142,146.154c-2.701,0-4.345,2.296-4.345,5.188
	c0,3.424,1.938,5.155,4.704,5.155c1.357,0,2.376-0.308,3.146-0.735v-2.287c-0.773,0.39-1.662,0.627-2.789,0.627
	c-1.106,0-2.082-0.392-2.209-1.723h5.56c0.013-0.152,0.038-0.748,0.038-1.023C183.247,148.449,181.839,146.154,179.142,146.154z
	 M179.124,148.47c0.697,0,1.437,0.536,1.437,1.814h-2.936C177.625,149.005,178.413,148.47,179.124,148.47z M169.538,153.99
	c-0.666,0-1.062-0.24-1.338-0.539l-0.018-4.22c0.296-0.324,0.705-0.562,1.355-0.562c1.039,0,1.755,1.164,1.755,2.649
	C171.293,152.847,170.589,153.99,169.538,153.99z M127.499,153.431c-0.368,0-0.737-0.158-1.052-0.474v-2.252
	c0.315-0.315,0.684-0.474,1.052-0.474c0.758,0,1.284,0.652,1.284,1.6S128.257,153.431,127.499,153.431z M118.606,153.431
	c-0.769,0-1.295-0.652-1.295-1.6s0.526-1.6,1.295-1.6c0.368,0,0.736,0.158,1.041,0.474v2.252
	C119.342,153.272,118.974,153.431,118.606,153.431z M112.849,150.115c0.599,0,1.031,0.495,1.073,1.211h-2.294
	C111.691,150.601,112.196,150.115,112.849,150.115z M103.292,150.115c0.6,0,1.032,0.495,1.074,1.211h-2.295
	C102.135,150.601,102.64,150.115,103.292,150.115z M89.136,153.462c-0.789,0-1.336-0.663-1.336-1.631s0.547-1.631,1.336-1.631
	c0.779,0,1.326,0.663,1.326,1.631S89.915,153.462,89.136,153.462z M83.032,150.769h-1.021v-2.453h1.021
	c0.779,0,1.326,0.496,1.326,1.231C84.358,150.272,83.811,150.769,83.032,150.769z"/>
</svg>
